<svg width="120" height="120" viewBox="0 0 120 120" fill="none" xmlns="http://www.w3.org/2000/svg">
<g clip-path="url(#clip0)">
<path d="M48.6512 67.5359V71.8403L36.3565 64L7 82.5987V120.094H65.6992L65.7112 82.5987L57.4148 77.376L57.4088 67.5367L48.6512 67.5359ZM62.6388 117.177H57.416L57.41 95.0437V91.97H42.9663V117.022H10.075V84.2859L36.3579 67.6927L62.6408 84.292L62.6388 117.177ZM46.0395 117.177V95.0437H54.3359V117.022H46.0395V117.177ZM54.3359 70.6096V75.3762L51.7245 73.8394V70.6096H54.3359Z" fill="black"/>
<path d="M25.4424 91.9683H15.2969V108.262H38.6613V91.9683H25.4424ZM35.588 105.187H28.5161V95.0419H35.588V105.187ZM25.4424 105.187H18.3705V95.0419H25.4424V105.187Z" fill="black"/>
<path d="M68.1798 117.165V92.861H106.82V117.165H109.314V90.6319H65.6883V117.165H68.1826H68.1798ZM73.1656 112.507H101.627V115.342H73.1656V112.507ZM73.1656 97.9247H101.627V100.557H73.1656V97.9247ZM73.1656 102.786H101.627V105.418H73.1656V102.786ZM73.1656 107.646H101.627V110.481H73.1656V107.646ZM58 117.165H62.7777V88H112.014V117.165H117V120H58.0001L58 117.165ZM70.8792 117.165H103.91V95.6956H70.8792V117.165Z" fill="black"/>
<rect y="117" width="120" height="3" fill="black"/>
</g>
<defs>
<clipPath id="clip0">
<rect width="120" height="56" fill="white" transform="translate(0 64)"/>
</clipPath>
</defs>
</svg>
