<svg width="120" height="120" viewBox="0 0 120 120" fill="none" xmlns="http://www.w3.org/2000/svg">
<g clip-path="url(#clip0)">
<path d="M44.6512 67.4417V71.7461L32.3565 63.9058L3 82.5045V120H61.6992L61.7112 82.5045L53.4148 77.2817L53.4088 67.4425L44.6512 67.4417ZM58.6388 117.083H53.416L53.41 94.9494V91.8758H38.9663V116.928H6.07504V84.1916L32.3579 67.5985L58.6408 84.1978L58.6388 117.083ZM42.0395 117.083V94.9494H50.3359V116.928H42.0395V117.083ZM50.3359 70.5154V75.282L47.7245 73.7452V70.5154H50.3359Z" fill="black"/>
<rect y="117" width="64" height="3" fill="black"/>
<path d="M21.4424 91.874H11.2969V108.168H34.6613V91.874H21.4424ZM31.588 105.093H24.5161V94.9477H31.588V105.093ZM21.4424 105.093H14.3705V94.9477H21.4424V105.093Z" fill="black"/>
<rect x="70" y="117" width="50" height="3" fill="black"/>
<path d="M77.851 117.133V94.9124H112.293V117.133H114.516V92.8745H75.6303V117.133H77.8535H77.851ZM82.2951 112.874H107.664V115.466H82.2951V112.874ZM82.2951 99.542H107.664V101.948H82.2951V99.542ZM82.2951 103.986H107.664V106.392H82.2951V103.986ZM82.2951 108.43H107.664V111.022H82.2951V108.43ZM70.7773 117.133H73.0359V90.4683H116.923V117.133H119.367V119.724H70.7775L70.7773 117.133ZM80.2571 117.133H109.699V97.504H80.2571V117.133Z" fill="black"/>
</g>
<defs>
<clipPath id="clip0">
<rect width="120" height="120" fill="white"/>
</clipPath>
</defs>
</svg>
